<svg xmlns="http://www.w3.org/2000/svg" width="512" height="512" viewBox="0 0 512 512">
  <defs>
    <linearGradient id="bg" x1="0" y1="0" x2="1" y2="1">
      <stop offset="0%" stop-color="#667eea"/>
      <stop offset="100%" stop-color="#764ba2"/>
    </linearGradient>
  </defs>
  <rect width="512" height="512" rx="80" fill="url(#bg)"/>
  <!-- 剪贴板 -->
  <rect x="140" y="100" width="232" height="300" rx="24" fill="#fff" opacity="0.95"/>
  <!-- 剪贴板顶部夹子 -->
  <rect x="200" y="85" width="112" height="28" rx="14" fill="#e8d5f5"/>
  <!-- 勾选标记 1 -->
  <rect x="170" y="170" width="28" height="28" rx="14" fill="#764ba2"/>
  <path d="M178 184l7 7 13-13" stroke="#fff" stroke-width="3.5" fill="none" stroke-linecap="round" stroke-linejoin="round"/>
  <rect x="215" y="172" width="130" height="24" rx="8" fill="#333"/>
  <!-- 勾选标记 2 -->
  <rect x="170" y="230" width="28" height="28" rx="14" fill="#ddd"/>
  <rect x="215" y="232" width="130" height="24" rx="8" fill="#888"/>
  <!-- 勾选标记 3 -->
  <rect x="170" y="290" width="28" height="28" rx="14" fill="#ddd"/>
  <rect x="215" y="292" width="90" height="24" rx="8" fill="#888"/>
  <!-- pencil line -->
  <rect x="170" y="350" width="130" height="3" rx="1.5" fill="#ddd"/>
</svg>
